<?xml version="1.0" encoding="UTF-8"?>
<svg version="1.1" xmlns="http://www.w3.org/2000/svg" width="428" height="90">
<path d="M0 0 C6 1 6 1 7.875 3.0625 C8.431875 4.0215625 8.431875 4.0215625 9 5 C9.309375 4.0409375 9.309375 4.0409375 9.625 3.0625 C11 1 11 1 14.125 0.25 C15.07375 0.1675 16.0225 0.085 17 0 C17.84069415 1.60032137 18.67231505 3.20541171 19.5 4.8125 C19.9640625 5.70582031 20.428125 6.59914063 20.90625 7.51953125 C22 10 22 10 22 13 C22.66 13 23.32 13 24 13 C24.66 11.35 25.32 9.7 26 8 C27.32 8.33 28.64 8.66 30 9 C29.0423528 13.89464126 27.43184884 16.98708168 24.4375 21 C20.82988618 25.90994745 20 28.96858833 20 35 C26.7801384 31.95585623 30.66678589 27.64920231 34 21 C35.35726152 16.37667808 36.27959627 11.76152562 37 7 C37.66 7 38.32 7 39 7 C39.43333824 16.48529261 38.32570042 23.57428788 34 32 C33.34 32 32.68 32 32 32 C31.74863281 32.59554687 31.49726562 33.19109375 31.23828125 33.8046875 C29.83826116 36.28674204 28.47811103 37.4519342 26.1875 39.125 C25.52105469 39.62257812 24.85460937 40.12015625 24.16796875 40.6328125 C16.86986111 45.23522272 8.35270058 44.82555762 0 44 C-3.21092927 43.19726768 -5.40320675 42.02370784 -8 40 C-9.04220703 39.23623047 -9.04220703 39.23623047 -10.10546875 38.45703125 C-16.95549912 33.00445698 -20.2328499 26.54122549 -22 18 C-22.14719815 14.65860205 -22.12102989 11.34176962 -22 8 C-21.34 7.67 -20.68 7.34 -20 7 C-19.91363281 7.60585938 -19.82726563 8.21171875 -19.73828125 8.8359375 C-18.06571702 18.8099444 -14.74105594 26.21216191 -6.8671875 32.72265625 C-4.92270342 34.17834831 -4.92270342 34.17834831 -2 35 C-2.12519827 28.23929325 -4.23433002 24.63849843 -8.30859375 19.296875 C-11.18165468 15.39535115 -12.27096502 12.87737035 -12 8 C-10.125 8.3125 -10.125 8.3125 -8 9 C-7.01 10.485 -7.01 10.485 -6 12 C-4.02 8.04 -2.04 4.08 0 0 Z M8 32 C8 33.98 8 35.96 8 38 C8.33 38 8.66 38 9 38 C9 36.02 9 34.04 9 32 C8.67 32 8.34 32 8 32 Z " fill="#055476" transform="translate(66,31)"/>
<path d="M0 0 C1.98 0 3.96 0 6 0 C6.33 2.97 6.66 5.94 7 9 C7.99 8.01 8.98 7.02 10 6 C13.13671875 5.70703125 13.13671875 5.70703125 16.6875 5.8125 C18.45673828 5.85310547 18.45673828 5.85310547 20.26171875 5.89453125 C21.61716797 5.94673828 21.61716797 5.94673828 23 6 C24.32 8.31 25.64 10.62 27 13 C27.99 10.69 28.98 8.38 30 6 C31.98 6 33.96 6 36 6 C35.40312656 9.41393519 34.53891281 12.42063302 33.1875 15.609375 C32.83429688 16.44597656 32.48109375 17.28257813 32.1171875 18.14453125 C31.74851563 19.00433594 31.37984375 19.86414063 31 20.75 C30.63132813 21.62527344 30.26265625 22.50054687 29.8828125 23.40234375 C27.13923518 29.86076482 27.13923518 29.86076482 26 31 C24.00041636 31.04080783 21.99954746 31.04254356 20 31 C20.20238281 30.41734375 20.40476563 29.8346875 20.61328125 29.234375 C22.84983198 21.28774784 20.67467775 16.17671963 17 9 C15.35 10.65 13.7 12.3 12 14 C13.49836105 17.11198065 15.19933758 20.0534615 17 23 C10.47692308 23.36923077 10.47692308 23.36923077 8.0625 21.5 C7.711875 21.005 7.36125 20.51 7 20 C6.67 20.99 6.34 21.98 6 23 C4.02 23 2.04 23 0 23 C0 15.41 0 7.82 0 0 Z " fill="#045375" transform="translate(134,34)"/>
<path d="M0 0 C0.33 0 0.66 0 1 0 C1.08636719 0.60585938 1.17273437 1.21171875 1.26171875 1.8359375 C2.88421257 11.51135936 6.06439099 19.33023343 13.90234375 25.52734375 C20.58802934 30.22101874 25.75382466 31.90540777 34 31 C42.58366498 29.1115937 48.73065195 24.21341681 53.5234375 16.98046875 C56.18174904 11.61461767 57.11005132 5.88213701 58 0 C58.66 0 59.32 0 60 0 C60.43333824 9.48529261 59.32570042 16.57428788 55 25 C54.34 25 53.68 25 53 25 C52.62294922 25.89332031 52.62294922 25.89332031 52.23828125 26.8046875 C50.83826116 29.28674204 49.47811103 30.4519342 47.1875 32.125 C46.52105469 32.62257812 45.85460937 33.12015625 45.16796875 33.6328125 C37.86986111 38.23522272 29.35270058 37.82555762 21 37 C17.78907073 36.19726768 15.59679325 35.02370784 13 33 C12.30519531 32.49082031 11.61039063 31.98164062 10.89453125 31.45703125 C4.04450088 26.00445698 0.7671501 19.54122549 -1 11 C-1.19405351 7.65630882 -1.27516011 4.3403158 -1 1 C-0.67 0.67 -0.34 0.34 0 0 Z " fill="#EA862D" transform="translate(45,38)"/>
<path d="M0 0 C3 2.375 3 2.375 5 5 C5 5.99 5 6.98 5 8 C2.125 8.125 2.125 8.125 -1 8 C-1.66 7.34 -2.32 6.68 -3 6 C-5.54190002 5.7499227 -5.54190002 5.7499227 -8 6 C-9.40432936 7.17718985 -9.40432936 7.17718985 -9.125 10.5 C-9.40432936 13.82281015 -9.40432936 13.82281015 -8 15 C-5.54190002 15.2500773 -5.54190002 15.2500773 -3 15 C-2.34 14.34 -1.68 13.68 -1 13 C2.125 12.875 2.125 12.875 5 13 C4.4375 15.8125 4.4375 15.8125 3 19 C-0.74345929 21.27543604 -3.2451011 22 -7.625 22 C-11.92441677 20.72609873 -13.51375638 19.76703578 -16 16 C-16.70088957 12.20493941 -16.7232372 8.79272422 -16 5 C-11.6684577 -0.85343554 -6.92336873 -1.99349917 0 0 Z " fill="#045375" transform="translate(187,36)"/>
<path d="M0 0 C1.12003418 0.06828003 1.12003418 0.06828003 2.26269531 0.13793945 C5.85144531 0.29262695 5.85144531 0.29262695 9.51269531 0.45043945 C9.51269531 6.06043945 9.51269531 11.67043945 9.51269531 17.45043945 C7.20269531 17.45043945 4.89269531 17.45043945 2.51269531 17.45043945 C0.93488281 17.75981445 0.93488281 17.75981445 -0.67480469 18.07543945 C-3.82748131 18.49579634 -4.96338274 18.34338092 -7.48730469 16.45043945 C-10.0330626 13.01366628 -9.92403345 9.5993627 -9.48730469 5.45043945 C-6.97657576 1.04073281 -5.12964273 -0.10692504 0 0 Z M-1.48730469 5.45043945 C-2.14730469 6.11043945 -2.80730469 6.77043945 -3.48730469 7.45043945 C-3.16689072 10.05324513 -3.16689072 10.05324513 -2.48730469 12.45043945 C-0.83730469 12.12043945 0.81269531 11.79043945 2.51269531 11.45043945 C2.84269531 10.46043945 3.17269531 9.47043945 3.51269531 8.45043945 C2.85269531 7.46043945 2.19269531 6.47043945 1.51269531 5.45043945 C0.52269531 5.45043945 -0.46730469 5.45043945 -1.48730469 5.45043945 Z " fill="#045375" transform="translate(323.4873046875,39.549560546875)"/>
<path d="M0 0 C1.6875 1.3125 1.6875 1.3125 2.4375 3.9375 C2.56125 5.113125 2.56125 5.113125 2.6875 6.3125 C-0.3125 6.3125 -3.3125 6.3125 -6.3125 6.3125 C-5.67441406 6.61542969 -5.03632812 6.91835938 -4.37890625 7.23046875 C-3.55261719 7.64941406 -2.72632812 8.06835938 -1.875 8.5 C-1.05128906 8.90605469 -0.22757813 9.31210937 0.62109375 9.73046875 C2.6875 11.3125 2.6875 11.3125 3.515625 13.8515625 C3.71859087 16.75766478 3.39023904 17.96109846 1.6875 20.3125 C-0.9545007 22.44642364 -3.11970389 22.41170498 -6.375 22.125 C-8.85964123 21.72708725 -10.18654523 21.39515782 -12.3125 20 C-13.3125 18.3125 -13.3125 18.3125 -13.3125 14.3125 C-11.3325 14.3125 -9.3525 14.3125 -7.3125 14.3125 C-6.9825 14.9725 -6.6525 15.6325 -6.3125 16.3125 C-5.6525 16.3125 -4.9925 16.3125 -4.3125 16.3125 C-4.3125 15.6525 -4.3125 14.9925 -4.3125 14.3125 C-5.42625 13.85875 -6.54 13.405 -7.6875 12.9375 C-11.3125 11.3125 -11.3125 11.3125 -13.3125 9.3125 C-13.87229644 4.05041349 -13.87229644 4.05041349 -11.9375 1.5 C-8.12785498 -1.28397136 -4.49484764 -1.33630605 0 0 Z " fill="#045375" transform="translate(128.3125,35.6875)"/>
<path d="M0 0 C2.413125 0.061875 4.82625 0.12375 7.3125 0.1875 C7.3125 5.7975 7.3125 11.4075 7.3125 17.1875 C5.0025 17.1875 2.6925 17.1875 0.3125 17.1875 C-0.71875 17.435 -1.75 17.6825 -2.8125 17.9375 C-5.6875 18.1875 -5.6875 18.1875 -8.5 16.375 C-10.6875 14.1875 -10.6875 14.1875 -11.6875 12.1875 C-11.671875 10.12890625 -11.671875 10.12890625 -11.4375 7.75 C-11.37046875 6.96753906 -11.3034375 6.18507813 -11.234375 5.37890625 C-9.72095456 -0.68558567 -5.41535499 -0.19569399 0 0 Z M-3.6875 5.1875 C-4.3475 5.8475 -5.0075 6.5075 -5.6875 7.1875 C-5.3689823 9.29570797 -5.3689823 9.29570797 -4.6875 11.1875 C-3.0375 11.5175 -1.3875 11.8475 0.3125 12.1875 C0.99208603 9.79030568 0.99208603 9.79030568 1.3125 7.1875 C0.6525 6.5275 -0.0075 5.8675 -0.6875 5.1875 C-1.6775 5.1875 -2.6675 5.1875 -3.6875 5.1875 Z " fill="#045375" transform="translate(204.6875,39.8125)"/>
<path d="M0 0 C13.44869269 -0.37014751 13.44869269 -0.37014751 15.92578125 1.29296875 C17.74109309 4.17766429 17.35319931 6.70347311 17 10 C15.45737187 12.10358381 14.31891683 12.84054159 12 14 C10.00039988 14.039992 7.99952758 14.04346799 6 14 C6 16.31 6 18.62 6 21 C4.02 21 2.04 21 0 21 C0 14.07 0 7.14 0 0 Z M6 5 C6 6.32 6 7.64 6 9 C7.65 8.67 9.3 8.34 11 8 C11 7.01 11 6.02 11 5 C9.35 5 7.7 5 6 5 Z " fill="#045375" transform="translate(252,36)"/>
<path d="M0 0 C2.5625 2.1875 2.5625 2.1875 4 5 C4 6.65 4 8.3 4 10 C0.37 10 -3.26 10 -7 10 C-6.67 10.66 -6.34 11.32 -6 12 C-5.01 11.67 -4.02 11.34 -3 11 C-0.66700175 10.96045766 1.66708189 10.95598268 4 11 C2.19587357 14.26460973 1.16605307 15.88929795 -2 18 C-5.51968186 18.14901879 -8.88115644 17.6496511 -11.9375 15.875 C-13.63126893 12.88599601 -13.88412468 10.4183218 -14 7 C-11.18022335 -0.25085423 -7.40408144 -1.17044982 0 0 Z M-7 5 C-7 5.66 -7 6.32 -7 7 C-5.35 7 -3.7 7 -2 7 C-2.33 6.34 -2.66 5.68 -3 5 C-4.32 5 -5.64 5 -7 5 Z " fill="#045375" transform="translate(240,40)"/>
<path d="M0 0 C3.55247432 0.87379409 4.94828114 2.4927342 6.9375 5.4765625 C7.61389058 8.49936996 7.39308841 10.28744363 6.9375 13.4765625 C4.79494848 16.81894288 3.33467502 17.36824204 -0.5 18.4140625 C-4.49236787 18.48410404 -5.98168433 17.94121504 -9.0625 15.4765625 C-11.56281654 11.72608768 -11.59853554 9.91799984 -11.0625 5.4765625 C-8.01308391 0.99773262 -5.26379448 -0.37883369 0 0 Z M-4.0625 5.4765625 C-4.3925 7.4565625 -4.7225 9.4365625 -5.0625 11.4765625 C-3.40635343 11.85875017 -1.73792976 12.19051352 -0.0625 12.4765625 C1.23383621 11.41011135 1.23383621 11.41011135 1 8.9140625 C0.979375 8.1096875 0.95875 7.3053125 0.9375 6.4765625 C-0.7125 6.1465625 -2.3625 5.8165625 -4.0625 5.4765625 Z " fill="#045375" transform="translate(281.0625,39.5234375)"/>
<path d="M0 0 C1.98 0 3.96 0 6 0 C6 1.32 6 2.64 6 4 C6.99 4 7.98 4 9 4 C9 5.65 9 7.3 9 9 C8.01 9 7.02 9 6 9 C6 11.31 6 13.62 6 16 C6.99 16 7.98 16 9 16 C9 17.65 9 19.3 9 21 C5.625 21.125 5.625 21.125 2 21 C0 19 0 19 -0.1953125 16.6171875 C-0.17210937 15.71226563 -0.14890625 14.80734375 -0.125 13.875 C-0.10695313 12.96492188 -0.08890625 12.05484375 -0.0703125 11.1171875 C-0.04710937 10.41851562 -0.02390625 9.71984375 0 9 C-0.66 9 -1.32 9 -2 9 C-2 7.35 -2 5.7 -2 4 C-1.34 4 -0.68 4 0 4 C0 2.68 0 1.36 0 0 Z " fill="#045375" transform="translate(304,36)"/>
<path d="M0 0 C1.65 0 3.3 0 5 0 C5 7.59 5 15.18 5 23 C3.02 23 1.04 23 -1 23 C-1.02887512 19.35418313 -1.04675585 15.70839537 -1.0625 12.0625 C-1.07087891 11.02158203 -1.07925781 9.98066406 -1.08789062 8.90820312 C-1.09272461 7.42416992 -1.09272461 7.42416992 -1.09765625 5.91015625 C-1.10289307 4.99371338 -1.10812988 4.07727051 -1.11352539 3.13305664 C-1 1 -1 1 0 0 Z " fill="#055376" transform="translate(336,34)"/>
<path d="M0 0 C3.63 0 7.26 0 11 0 C11 1.98 11 3.96 11 6 C9.68 6.33 8.36 6.66 7 7 C6.67 10.3 6.34 13.6 6 17 C4.02 17 2.04 17 0 17 C0 11.39 0 5.78 0 0 Z " fill="#055376" transform="translate(215,40)"/>
<path d="M0 0 C3.63 0 7.26 0 11 0 C11 1.98 11 3.96 11 6 C9.68 6.33 8.36 6.66 7 7 C6.67 10.3 6.34 13.6 6 17 C4.02 17 2.04 17 0 17 C0 11.39 0 5.78 0 0 Z " fill="#045475" transform="translate(290,40)"/>
<path d="M0 0 C0.66 0 1.32 0 2 0 C2 0.99 2 1.98 2 3 C2.99 3 3.98 3 5 3 C4.67 4.98 4.34 6.96 4 9 C1.69 9 -0.62 9 -3 9 C-2.67 7.68 -2.34 6.36 -2 5 C-2.66 5 -3.32 5 -4 5 C-4 4.34 -4 3.68 -4 3 C-3.01 3 -2.02 3 -1 3 C-0.67 2.01 -0.34 1.02 0 0 Z " fill="#EC8A2D" transform="translate(74,15)"/>
<path d="M0 0 C0.66 0 1.32 0 2 0 C2 0.66 2 1.32 2 2 C2.66 2 3.32 2 4 2 C3.67 3.32 3.34 4.64 3 6 C1.68 6 0.36 6 -1 6 C-1.625 4.125 -1.625 4.125 -2 2 C-1.34 1.34 -0.68 0.68 0 0 Z " fill="#EC8A2A" transform="translate(83,19)"/>
<path d="M0 0 C0.33 0.66 0.66 1.32 1 2 C1.99 2.33 2.98 2.66 4 3 C3.01 4.485 3.01 4.485 2 6 C0.68 6 -0.64 6 -2 6 C-2.33 4.68 -2.66 3.36 -3 2 C-2.01 1.34 -1.02 0.68 0 0 Z " fill="#E87F2B" transform="translate(65,19)"/>
<path d="M0 0 C-0.33 1.32 -0.66 2.64 -1 4 C-2.32 4 -3.64 4 -5 4 C-5.33 2.68 -5.66 1.36 -6 0 C-3.50907189 -1.24546405 -2.58919267 -0.7767578 0 0 Z " fill="#E37A27" transform="translate(94,25)"/>
<path d="M0 0 C0.99 0.33 1.98 0.66 3 1 C2.67 2.32 2.34 3.64 2 5 C1.01 5 0.02 5 -1 5 C-1 4.34 -1 3.68 -1 3 C-1.66 2.67 -2.32 2.34 -3 2 C-2.01 1.34 -1.02 0.68 0 0 Z " fill="#EB7D29" transform="translate(58,24)"/>
<path d="M0 0 C0.99 0.33 1.98 0.66 3 1 C2.67 1.99 2.34 2.98 2 4 C1.01 4 0.02 4 -1 4 C-1.33 3.01 -1.66 2.02 -2 1 C-1.34 0.67 -0.68 0.34 0 0 Z " fill="#EC822A" transform="translate(53,30)"/>
<path d="M0 0 C1.32 0.66 2.64 1.32 4 2 C3.67 2.66 3.34 3.32 3 4 C2.01 4 1.02 4 0 4 C-0.33 3.01 -0.66 2.02 -1 1 C-0.67 0.67 -0.34 0.34 0 0 Z " fill="#EB8D2A" transform="translate(94,30)"/>
<path d="M0 0 C1.32 0 2.64 0 4 0 C4 0.99 4 1.98 4 3 C3.01 3 2.02 3 1 3 C0.67 2.01 0.34 1.02 0 0 Z " fill="#EB7829" transform="translate(49,37)"/>
<path d="M0 0 C0.99 0 1.98 0 3 0 C3 0.99 3 1.98 3 3 C2.01 3 1.02 3 0 3 C0 2.01 0 1.02 0 0 Z " fill="#EA9126" transform="translate(96,37)"/>
</svg>
